<svg width="15" height="15" viewBox="0 0 15 15" fill="none" xmlns="http://www.w3.org/2000/svg">
<path d="M2.21902 14.6113C1.70029 15.1295 0.893364 15.1295 0.374632 14.6113C0.115266 14.3522 -3.47453e-06 14.0355 -3.45943e-06 13.69C-3.44433e-06 13.3445 0.115266 13.0278 0.374632 12.7687L5.6484 7.49999L0.374633 2.23126C0.115267 1.97214 -2.93339e-06 1.65546 -2.91828e-06 1.30997C-2.90318e-06 0.964477 0.115267 0.647792 0.374633 0.388675C0.893365 -0.129559 1.70029 -0.129559 2.21902 0.388675L7.49279 5.65737L12.7666 0.388676C13.2853 -0.129559 14.0922 -0.129559 14.611 0.388676C15.1297 0.90691 15.1297 1.71302 14.611 2.23126L9.33718 7.49999L14.611 12.7687C15.1297 13.2869 15.1297 14.0931 14.611 14.6113C14.0922 15.1295 13.2853 15.1295 12.7666 14.6113L7.49279 9.34257L2.21902 14.6113Z" fill="white"/>
</svg>
