<svg width="98" height="17" viewBox="0 0 98 17" fill="none" xmlns="http://www.w3.org/2000/svg">
<path d="M7.60845 2.92705C7.9078 2.00574 9.21121 2.00574 9.51056 2.92705L10.5801 6.21885H14.0413C15.0101 6.21885 15.4128 7.45846 14.6291 8.02786L11.8289 10.0623L12.8985 13.3541C13.1979 14.2754 12.1434 15.0415 11.3597 14.4721L8.55951 12.4377L5.75934 14.4721C4.97563 15.0415 3.92115 14.2754 4.2205 13.3541L5.29007 10.0623L2.4899 8.02787C1.70619 7.45846 2.10896 6.21885 3.07768 6.21885H6.53888L7.60845 2.92705Z" fill="white"/>
<path d="M27.6085 2.92705C27.9078 2.00574 29.2112 2.00574 29.5106 2.92705L30.5801 6.21885H34.0413C35.0101 6.21885 35.4128 7.45846 34.6291 8.02786L31.8289 10.0623L32.8985 13.3541C33.1979 14.2754 32.1434 15.0415 31.3597 14.4721L28.5595 12.4377L25.7593 14.4721C24.9756 15.0415 23.9211 14.2754 24.2205 13.3541L25.2901 10.0623L22.4899 8.02787C21.7062 7.45846 22.109 6.21885 23.0777 6.21885H26.5389L27.6085 2.92705Z" fill="white"/>
<path d="M47.6085 2.92705C47.9078 2.00574 49.2112 2.00574 49.5106 2.92705L50.5801 6.21885H54.0413C55.0101 6.21885 55.4128 7.45846 54.6291 8.02786L51.8289 10.0623L52.8985 13.3541C53.1979 14.2754 52.1434 15.0415 51.3597 14.4721L48.5595 12.4377L45.7593 14.4721C44.9756 15.0415 43.9211 14.2754 44.2205 13.3541L45.2901 10.0623L42.4899 8.02787C41.7062 7.45846 42.109 6.21885 43.0777 6.21885H46.5389L47.6085 2.92705Z" fill="white"/>
<path d="M67.6085 2.92705C67.9078 2.00574 69.2112 2.00574 69.5106 2.92705L70.5801 6.21885H74.0413C75.0101 6.21885 75.4128 7.45846 74.6291 8.02786L71.8289 10.0623L72.8985 13.3541C73.1979 14.2754 72.1434 15.0415 71.3597 14.4721L68.5595 12.4377L65.7593 14.4721C64.9756 15.0415 63.9211 14.2754 64.2205 13.3541L65.2901 10.0623L62.4899 8.02787C61.7062 7.45846 62.109 6.21885 63.0777 6.21885H66.5389L67.6085 2.92705Z" fill="white"/>
<path d="M87.6085 2.92705C87.9078 2.00574 89.2112 2.00574 89.5106 2.92705L90.5801 6.21885H94.0413C95.0101 6.21885 95.4128 7.45846 94.6291 8.02786L91.8289 10.0623L92.8985 13.3541C93.1979 14.2754 92.1434 15.0415 91.3597 14.4721L88.5595 12.4377L85.7593 14.4721C84.9756 15.0415 83.9211 14.2754 84.2205 13.3541L85.2901 10.0623L82.4899 8.02787C81.7062 7.45846 82.109 6.21885 83.0777 6.21885H86.5389L87.6085 2.92705Z" fill="white"/>
</svg>
