<svg width="267" height="354" viewBox="0 0 267 354" fill="none" xmlns="http://www.w3.org/2000/svg">
<path d="M74.1075 197.462L73.7433 199.132L72.6958 201.529L68.2767 204.944C67.6662 205.336 67.3171 206.135 67.7091 206.745L66.2118 207.995C65.3978 208.518 65.3099 209.723 66.036 210.406C66.1667 210.609 66.5008 210.681 66.6315 210.885C66.4858 211.553 66.8778 212.163 67.4732 212.642C68.5335 213.397 69.9429 213.353 70.6262 212.626L75.9621 206.612C76.1656 206.481 76.1656 206.481 76.1656 206.481C76.1656 206.481 76.1656 206.481 76.3691 206.35C76.3691 206.35 76.3691 206.35 76.5726 206.219C76.5726 206.219 76.5726 206.219 76.6454 205.885L78.5821 198.608C78.8006 197.606 78.1473 196.589 77.0142 196.168C75.6776 195.878 74.326 196.46 74.1075 197.462Z" fill="#FFAE80"/>
<path d="M69.2784 177.871L68.2586 182.548C68.0401 183.55 67.9522 184.756 68.1985 186.034L68.7489 189.127C68.6761 189.461 68.9374 189.868 68.8645 190.202L67.4077 196.884C67.1892 197.886 67.8425 198.902 69.1791 199.192C70.3851 199.279 71.5332 198.829 71.7517 197.826L72.568 193.28L74.0329 197.797L73.5786 204.696L69.6521 210.666C69.0994 211.596 69.5492 212.743 70.4789 213.295C71.612 213.716 72.8907 213.469 73.5741 212.742L78.1261 205.508C78.1261 205.508 79.495 200.032 79.8592 198.361C79.932 198.027 79.8742 197.49 79.947 197.156C80.0499 195.079 80.0094 189.647 78.5444 185.13L77.7778 179.016L69.2784 177.871Z" fill="#FFAE80"/>
<path d="M85.0064 81.1109C85.1198 86.2088 83.6352 90.6101 82.4698 95.9554C82.397 96.2895 82.2513 96.9576 82.1785 97.2917C80.7067 104.845 77.0219 120.14 77.0219 120.14C77.0219 120.14 78.5949 165.092 79.9502 183.755L61.4008 174.131C59.3321 157.937 53.7403 128.208 54.3403 120.641C55.4524 106.712 57.9162 92.2015 59.5082 77.6769C60.0481 73.5954 62.2737 69.0051 65.3412 66.1719C66.228 65.3147 67.042 64.7915 67.9866 64.4717C71.431 63.1198 75.0338 64.2516 77.9382 66.9812C82.1065 70.3349 84.8352 75.4756 85.0064 81.1109Z" fill="#EA4A49"/>
<path opacity="0.3" d="M75.3047 170.372C75.7885 174.238 76.5142 178.105 77.2399 181.73C77.4818 182.938 77.7237 183.905 77.9656 185.113C78.4494 186.805 78.9331 188.496 79.4169 190.188C79.175 193.088 79.175 195.988 78.9331 198.646L78.6912 205.413C78.6912 207.588 78.4493 209.763 78.4493 211.696C84.9806 211.213 92.9631 211.213 101.43 211.454C104.574 217.496 104.09 224.987 103.365 231.995C103.123 234.895 102.881 238.037 101.671 240.695C100.462 243.354 98.5267 246.012 95.8659 246.978C98.7686 249.637 100.462 253.503 101.188 257.128C101.913 260.995 101.913 264.861 102.397 268.728C102.639 274.045 103.365 279.361 104.09 284.436V282.019L105.058 254.47L113.041 201.304V200.096L121.749 253.02L121.991 253.987C121.991 266.795 121.507 280.569 121.265 293.861C121.265 294.102 121.265 294.344 121.265 294.586C121.749 289.511 122.233 284.436 122.474 279.119C122.474 276.703 122.716 274.286 123.442 272.111C123.926 270.661 124.652 269.211 125.135 267.761C126.829 262.445 126.345 256.403 129.248 251.57C129.489 251.087 129.731 250.603 129.731 250.12C129.731 249.637 129.49 248.912 129.49 248.428C125.135 236.829 123.684 224.021 124.893 211.696C133.118 211.696 140.617 210.971 146.664 209.521L146.18 202.754L145.213 188.013L144.729 179.072L144.003 167.714C131.908 167.472 119.572 169.405 107.477 169.888C96.5916 170.855 85.9481 170.372 75.3047 170.372Z" fill="#1D1D1B"/>
<path d="M103.121 45.9158L109.894 44.9491L110.862 51.474L103.605 51.2324L103.121 45.9158Z" fill="#EBB677"/>
<path opacity="0.3" d="M119.812 79.9905C123.199 102.948 126.344 126.148 131.907 148.622C134.81 160.222 138.197 171.338 142.309 182.213C143.035 184.388 144.002 186.563 144.97 188.98V188.496L144.486 179.555L143.76 168.197L143.518 162.639V160.464C143.518 158.53 143.518 156.839 143.518 154.905C143.518 152.731 143.276 150.556 143.276 148.622C143.276 147.172 143.035 145.481 143.035 144.031C142.793 142.097 142.793 140.406 142.551 138.714C142.551 137.989 142.309 137.023 142.309 136.298C142.309 135.331 142.067 134.364 142.067 133.398C142.067 132.431 141.825 131.706 141.825 130.739C141.825 129.773 141.583 129.048 141.583 128.081V127.839C131.907 113.34 127.553 95.6985 119.812 79.9905Z" fill="#456F96"/>
<path opacity="0.3" d="M99.2532 142.339C96.8342 130.981 92.2382 120.106 89.3354 108.748C86.4326 97.39 85.9489 84.8236 91.7544 74.6738C90.303 88.4485 95.6247 101.74 99.0113 115.273C102.882 131.223 103.849 148.139 101.672 164.33C101.188 157.08 100.705 149.589 99.2532 142.339Z" fill="#456F96"/>
<path d="M75.0605 349.442C75.0605 349.684 75.0605 350.167 75.0605 350.409H99.9759V349.926C99.9759 349.684 99.9759 349.684 99.9759 349.442V349.201C99.734 347.992 99.4921 346.784 99.2502 345.818C98.0407 341.951 95.1379 340.743 91.7514 340.259C90.5419 340.018 89.3324 340.018 87.8811 340.018H86.9135C81.108 340.018 76.27 340.501 75.3024 346.542C75.0605 347.751 75.0605 348.476 75.0605 349.442Z" fill="#212121"/>
<path d="M74.8184 349.442L75.0603 350.651V353.309H99.9756L99.7337 350.651V350.167V349.684V349.442H74.8184Z" fill="#1D1715"/>
<path d="M127.796 347.993C127.796 348.476 127.796 348.959 127.796 349.443V350.409H167.951C167.951 349.926 167.951 349.684 167.709 349.443C166.499 343.643 159.242 340.743 151.26 339.535C144.97 338.568 138.439 338.81 133.359 339.535C131.666 339.776 130.215 340.018 129.005 340.501C128.521 340.743 127.312 340.984 127.796 347.993Z" fill="#1D1715"/>
<path d="M127.797 349.442V350.409L128.039 353.309H168.194L167.952 350.409V349.442H127.797Z" fill="#16191E"/>
<path d="M192.626 165.538C193.351 166.747 193.11 168.922 193.11 170.372C192.626 174.48 191.658 176.655 190.207 180.038C188.513 183.905 179.805 179.071 179.563 178.346C179.321 177.621 179.563 176.655 180.289 176.171C181.982 174.963 184.401 177.138 185.853 175.688C186.336 175.205 186.336 174.48 186.578 173.755C186.82 172.063 186.336 169.888 184.885 169.163C183.917 168.68 182.466 168.922 181.257 168.922C178.112 169.163 173.758 166.263 172.548 163.363C171.339 160.463 173.758 157.805 176.177 155.872C177.144 154.905 178.596 154.422 180.047 154.664C180.773 154.905 191.658 164.088 192.626 165.538Z" fill="#FFAE80"/>
<path d="M73.1278 344.609C73.1278 345.576 73.8535 346.301 75.3049 346.784C77.482 347.509 81.1104 347.751 84.9808 347.751C85.7065 347.751 86.4321 347.751 87.1578 347.509C91.2701 347.268 95.6242 346.543 99.0108 345.818C100.22 345.576 101.188 345.334 101.914 345.093L104.091 284.436V282.019L105.058 254.47L113.041 201.304V200.096L121.749 253.02L121.991 253.986C121.991 266.794 121.507 280.327 121.265 293.86C121.023 314.885 121.507 334.943 125.861 348.718C126.103 348.476 126.345 348.476 126.587 348.476C126.829 348.234 127.313 348.234 127.555 347.993C129.49 347.268 131.667 346.543 134.086 346.059C139.891 344.368 146.664 342.918 151.502 339.534V339.293L149.083 255.678L146.423 209.521L145.939 202.754L145.213 188.496V188.013L144.729 179.071L144.004 167.713L143.762 162.155V159.98L143.52 156.355L143.278 152.73L143.036 148.38H75.063C74.8211 150.072 74.8211 151.522 74.8211 153.214C74.8211 154.422 74.8211 155.389 74.8211 156.597C74.8211 160.705 75.063 164.572 75.3049 168.438C75.3049 169.163 75.5468 169.647 75.5468 170.372C76.0306 174.238 76.7563 178.105 77.482 181.73C77.7239 182.938 77.9658 183.905 78.2077 185.113C78.6915 186.805 79.1753 188.496 79.659 190.188C79.659 191.396 79.4172 192.604 79.4172 194.054C79.4172 195.746 79.1753 197.196 79.1753 198.888L78.9334 205.654C78.9334 207.829 78.6915 210.004 78.6915 211.937C77.9658 225.954 77.482 239.487 77.482 249.636C77.482 250.603 77.482 251.57 77.482 252.536C77.482 256.403 77.2401 262.444 76.7563 269.936C74.8211 294.344 70.9508 332.526 73.1278 344.609Z" fill="#5E4A4C"/>
<path d="M83.2857 51.7158L82.0762 30.4496C91.2683 30.2079 103.363 29.483 105.54 28.9996C105.54 28.9996 106.508 44.4659 107.475 50.9908C111.588 67.9071 91.5102 70.3237 83.2857 51.7158Z" fill="#FFAE80"/>
<path d="M79.4157 34.3166C77.2386 30.45 76.9967 28.5167 76.0291 24.1668C73.6102 3.62565 85.705 4.59228 93.4457 3.38397C102.396 2.41733 111.83 7.25054 114.249 20.7836C114.007 22.2335 113.523 23.4419 113.523 23.4419L117.635 30.6917C118.361 31.9 117.877 33.35 116.426 33.8333L114.491 34.5582C114.733 36.0082 115.7 41.8081 115.7 41.8081C116.184 45.1913 115.458 50.9912 110.62 51.2329C108.685 50.9912 104.089 47.8496 101.67 35.5249C98.5255 35.7666 81.109 37.2165 79.4157 34.3166Z" fill="#FFAE80"/>
<path d="M83.046 43.2578C107.478 45.916 101.188 34.7996 101.43 32.383C101.43 31.658 105.301 31.658 105.301 30.933C105.059 18.3666 99.9788 10.6335 110.138 10.6335C113.767 9.42518 114.251 -2.89953 91.0286 1.20871C80.869 3.142 73.6121 9.9085 73.3702 20.2999C72.8864 30.4497 78.6919 41.8078 83.046 43.2578Z" fill="black"/>
<path d="M96.1064 30.6917C96.5902 33.8333 99.2511 37.2166 100.944 36.9749C102.638 36.7332 102.154 34.075 101.67 30.6917C101.428 28.5167 100.944 25.6167 99.2511 25.1334C97.5578 25.1334 95.3807 26.1001 96.1064 30.6917Z" fill="#FFAE80"/>
<path d="M62 75.8821C62 76.3654 62 76.8488 62 77.3321V77.5737L63.2095 93.2817V93.765C63.2095 93.765 69.2569 149.831 67.0798 185.355C66.8379 190.43 71.1921 194.78 76.5138 194.055C77.4814 194.055 78.2071 193.813 79.1747 193.813C88.3667 193.088 100.945 194.055 113.524 195.505C117.152 195.988 121.023 196.471 124.651 196.955C133.36 198.163 141.584 191.88 142.068 182.938V182.696C142.068 182.455 142.068 182.213 142.068 181.971C142.793 175.688 143.035 169.163 143.035 162.155V159.98C143.035 158.047 143.035 156.355 143.035 154.422C143.035 152.247 142.793 150.072 142.793 148.139C142.793 146.689 142.552 144.997 142.552 143.547C142.31 141.614 142.31 139.922 142.068 138.231C142.068 137.506 141.826 136.539 141.826 135.814C141.826 134.848 141.584 133.881 141.584 132.914C141.584 131.948 141.342 131.223 141.342 130.256C141.342 129.289 141.1 128.564 141.1 127.598V127.356C141.1 126.631 140.858 125.906 140.858 124.939C140.858 123.973 140.616 123.248 140.616 122.281C140.133 117.69 139.407 113.34 138.923 108.99C138.197 104.156 137.472 99.5649 136.746 95.4567C136.262 93.2818 136.02 91.1068 135.537 89.1735C134.811 85.5486 134.327 82.407 133.601 79.507C133.118 76.6071 132.634 74.4321 132.15 72.7405C131.666 70.3239 131.182 68.8739 131.182 68.8739C128.763 64.524 129.489 61.1408 124.893 58.7241C124.893 58.7241 124.651 58.7242 124.409 58.4825C123.926 58.2408 123.2 57.9992 122.474 57.7575H122.232C117.394 56.3075 108.202 53.4076 108.202 53.4076H107.718H107.477L84.4964 54.8576L80.1422 55.0992L69.7407 61.1408C65.1447 64.2823 62 69.8406 62 75.8821Z" fill="#EA4A49"/>
<path d="M105.057 49.5408C98.7675 48.3325 84.7375 49.2991 82.5605 50.2658L80.8672 55.099C82.5605 57.9989 97.3161 57.7572 108.685 53.4073L108.201 52.199C107.718 50.9907 106.508 49.7825 105.057 49.5408Z" fill="#C21E1D"/>
<path d="M112.799 60.416C112.073 61.3826 111.831 62.3493 111.347 63.3159C110.38 67.1825 110.621 72.2574 112.315 75.8823C112.315 75.8823 112.315 75.8823 112.315 76.124C113.766 79.7489 115.459 83.1321 116.911 86.7571C117.878 88.932 118.846 91.107 119.814 93.5236C121.265 96.6652 122.474 100.048 123.926 103.19C125.861 107.54 127.796 111.648 129.731 115.756C131.908 120.106 142.068 131.706 151.744 143.064C152.47 143.789 153.195 144.756 153.679 145.481C158.275 150.797 165.29 160.705 168.435 164.572L184.642 154.422C173.998 139.198 149.083 103.915 149.083 103.915C149.083 103.915 144.245 88.6903 141.826 81.6821C141.584 81.1988 141.584 80.7155 141.342 80.2322C140.133 76.6073 139.165 73.224 137.714 70.0824C137.23 68.8741 136.504 67.6658 135.779 66.4575C135.779 66.4575 135.779 66.2158 135.537 65.9742C135.053 65.4908 134.811 64.7659 134.327 64.2825C134.327 64.2825 134.327 64.0409 134.085 64.0409C131.183 60.6576 127.07 58.4826 122.716 57.516C118.604 56.791 114.976 57.516 112.799 60.416Z" fill="#EA4A49"/>
<path d="M196.738 214.837L194.803 215.32L223.347 331.801L247.294 326.001C256.728 323.826 262.292 314.643 260.115 305.702L256.728 291.927L245.359 245.77L244.633 242.628C239.554 221.845 218.267 209.52 196.738 214.837Z" fill="#5589B9"/>
<path d="M186.093 171.58C186.818 174.238 185.125 176.655 182.464 177.38C179.803 178.105 177.143 176.413 176.659 173.996C175.933 171.338 177.626 168.922 180.287 168.197C182.948 167.472 185.367 169.163 186.093 171.58Z" fill="#4D4D4D"/>
<path d="M220.687 344.851L226.008 343.643L183.918 172.546C183.435 171.096 181.983 170.13 180.532 170.371C179.08 170.855 178.113 172.305 178.597 173.755L220.687 344.851Z" fill="#1D1715"/>
<path d="M243.909 308.843L232.54 311.502C228.911 312.468 225.041 310.293 224.073 306.668L215.849 273.561C214.881 269.936 217.3 266.311 220.929 265.344L232.298 262.686C235.926 261.719 239.797 263.894 240.764 267.519L248.989 300.627C250.198 304.252 247.779 307.877 243.909 308.843Z" fill="#4072A1"/>
<path d="M258.18 263.169L266.405 296.277C267.372 299.902 264.953 303.527 261.325 304.493L260.115 304.735L248.746 258.578L249.956 258.336C253.342 257.369 257.213 259.544 258.18 263.169Z" fill="#4072A1"/>
<path d="M241.97 270.869L217.062 276.955L218.787 283.998L243.694 277.911L241.97 270.869Z" fill="#ECF0F1"/>
<path d="M258.896 266.918L250.906 268.869L252.629 275.911L260.618 273.961L258.896 266.918Z" fill="#ECF0F1"/>
<path d="M232.78 341.951C233.989 346.784 230.844 351.859 225.765 353.067C220.685 354.276 215.605 351.376 214.396 346.542C213.186 341.709 216.331 336.634 221.411 335.426C226.49 333.976 231.57 336.876 232.78 341.951Z" fill="#1D1715"/>
<path d="M228.185 342.917C228.669 345.334 227.218 347.75 224.799 348.475C222.38 349.2 219.719 347.508 219.235 345.092C218.751 342.675 220.203 340.259 222.622 339.534C225.041 339.05 227.46 340.5 228.185 342.917Z" fill="#F6F6F6"/>
</svg>
